<svg id="visual" viewBox="0 0 900 600" width="900" height="600" xmlns="http://www.w3.org/2000/svg" xmlns:xlink="http://www.w3.org/1999/xlink" version="1.1"><rect x="0" y="0" width="900" height="600" fill="#B7C5B7"></rect><path d="M0 460L129 535L257 505L386 530L514 506L643 427L771 463L900 392L900 601L771 601L643 601L514 601L386 601L257 601L129 601L0 601Z" fill="#b7c5b7"></path><path d="M0 438L129 498L257 539L386 474L514 474L643 544L771 479L900 514L900 601L771 601L643 601L514 601L386 601L257 601L129 601L0 601Z" fill="#97aa97"></path><path d="M0 536L129 509L257 557L386 557L514 560L643 469L771 485L900 478L900 601L771 601L643 601L514 601L386 601L257 601L129 601L0 601Z" fill="#799077"></path><path d="M0 500L129 504L257 519L386 519L514 535L643 539L771 501L900 497L900 601L771 601L643 601L514 601L386 601L257 601L129 601L0 601Z" fill="#5b7759"></path><path d="M0 548L129 549L257 576L386 544L514 565L643 539L771 578L900 583L900 601L771 601L643 601L514 601L386 601L257 601L129 601L0 601Z" fill="#3f5e3c"></path></svg>